<svg xmlns="http://www.w3.org/2000/svg" xmlns:xlink="http://www.w3.org/1999/xlink" viewBox="-2545 2292 14 14"><defs><style>.a{fill:#fff;}.b{opacity:0.5;clip-path:url(#a);}</style><clipPath id="a"><rect class="a" width="14" height="14" transform="translate(144 3676)"/></clipPath></defs><g class="b" transform="translate(-2689 -1384)"><g transform="translate(144 3676)"><path class="a" d="M2.8,4.2a1.8,1.8,0,0,0,1.32-.547,1.8,1.8,0,0,0,.547-1.32,1.8,1.8,0,0,0-.547-1.32A1.8,1.8,0,0,0,2.8.467a1.8,1.8,0,0,0-1.32.547,1.8,1.8,0,0,0-.547,1.32,1.8,1.8,0,0,0,.547,1.32A1.8,1.8,0,0,0,2.8,4.2Z"/><path class="a" d="M5.02,7.113A2.7,2.7,0,0,0,7,7.933a2.7,2.7,0,0,0,1.98-.82,2.7,2.7,0,0,0,.82-1.98,2.7,2.7,0,0,0-.82-1.98A2.7,2.7,0,0,0,7,2.333a2.7,2.7,0,0,0-1.98.82,2.7,2.7,0,0,0-.82,1.98A2.7,2.7,0,0,0,5.02,7.113Z"/><path class="a" d="M11.2,4.2a1.8,1.8,0,0,0,1.32-.547,1.8,1.8,0,0,0,.547-1.32,1.8,1.8,0,0,0-.547-1.32,1.866,1.866,0,0,0-2.64,0,1.8,1.8,0,0,0-.547,1.32,1.8,1.8,0,0,0,.547,1.32A1.8,1.8,0,0,0,11.2,4.2Z"/><path class="a" d="M13.1,4.2a1.4,1.4,0,0,0-.317.153,4.787,4.787,0,0,1-.711.31,2.561,2.561,0,0,1-.868.157,2.928,2.928,0,0,1-.97-.168,3.661,3.661,0,0,1,.036.481A3.21,3.21,0,0,1,9.676,7a2.514,2.514,0,0,1,1.933.934h.977a1.672,1.672,0,0,0,1.006-.3A1,1,0,0,0,14,6.774Q14,4.2,13.1,4.2Z"/><path class="a" d="M12.006,10.1a6.175,6.175,0,0,0-.193-.791,3.758,3.758,0,0,0-.313-.711A2.571,2.571,0,0,0,11.047,8a1.906,1.906,0,0,0-.624-.39,2.19,2.19,0,0,0-.813-.146.859.859,0,0,0-.314.157q-.241.157-.532.35a3.2,3.2,0,0,1-.78.35,3.168,3.168,0,0,1-1.969,0,3.2,3.2,0,0,1-.78-.35q-.292-.193-.532-.35a.859.859,0,0,0-.314-.157,2.19,2.19,0,0,0-.813.146A1.9,1.9,0,0,0,2.953,8a2.565,2.565,0,0,0-.452.591,3.75,3.75,0,0,0-.313.711,6.193,6.193,0,0,0-.193.791,7.414,7.414,0,0,0-.1.795q-.026.368-.026.755A1.817,1.817,0,0,0,2.4,13.027a1.968,1.968,0,0,0,1.415.507h6.373a1.968,1.968,0,0,0,1.415-.507,1.817,1.817,0,0,0,.532-1.382q0-.386-.025-.755A7.539,7.539,0,0,0,12.006,10.1Z"/><path class="a" d="M4.324,7a3.21,3.21,0,0,1-.591-1.867,3.642,3.642,0,0,1,.036-.481,2.93,2.93,0,0,1-.97.168,2.561,2.561,0,0,1-.868-.157,4.791,4.791,0,0,1-.711-.31A1.392,1.392,0,0,0,.9,4.2Q0,4.2,0,6.774a1,1,0,0,0,.408.864,1.672,1.672,0,0,0,1.006.3h.977A2.514,2.514,0,0,1,4.324,7Z"/></g></g></svg>